Coordinates
version=1
nRows=21
nColumns=22
inDegrees=yes

Units are S.I. units (second, meters, Newtons, ...)
If the header above contains a line with 'inDegrees', this indicates whether rotational values are in degrees (yes) or radians (no).

endheader
time	pelvis_tilt	pelvis_list	pelvis_rotation	pelvis_tx	pelvis_ty	pelvis_tz	hip_flexion_r	hip_adduction_r	hip_rotation_r	knee_angle_r	ankle_angle_r	subtalar_angle_r	hip_flexion_l	hip_adduction_l	hip_rotation_l	knee_angle_l	ankle_angle_l	subtalar_angle_l	lumbar_extension	lumbar_bending	lumbar_rotation
      3.01000000	     -6.97474136	     -0.75857033	    -39.60694313	      0.12571868	      0.88265997	      0.29737500	     27.18012085	      0.06862077	     -1.11592491	    -59.92559062	      7.78963212	      6.42211867	      8.37218055	     -3.06767827	      3.24160021	    -18.78029198	     18.16566669	     -0.42687063	     -2.04737061	      3.64404547	      4.50831546
      3.02000000	     -6.88161051	     -0.87385064	    -39.17072395	      0.13163263	      0.88273179	      0.30061566	     27.71591433	      0.17767320	     -1.26523095	    -58.27184400	      8.19660963	      6.45529881	      7.54572066	     -3.00821405	      3.57123674	    -18.29784749	     18.29334499	     -0.40953287	     -2.10266828	      3.65835920	      4.14930170
      3.03000000	     -6.77464929	     -0.96441701	    -38.75875951	      0.13754564	      0.88273903	      0.30387342	     28.19139858	      0.24429198	     -1.38455843	    -56.47529576	      8.53577903	      6.47603239	      6.70943619	     -2.93106222	      3.88181648	    -17.79747538	     18.41514241	     -0.41936007	     -2.15378027	      3.65249854	      3.82657345
      3.04000000	     -6.66238259	     -1.02369043	    -38.37655091	      0.14343009	      0.88266031	      0.30715325	     28.62466715	      0.27278382	     -1.47799739	    -54.55203686	      8.82614079	      6.48067812	      5.87726360	     -2.83470275	      4.17333602	    -17.28382012	     18.52713083	     -0.45626034	     -2.19117685	      3.62245876	      3.54722764
      3.05000000	     -6.54423666	     -1.05392358	    -38.02046591	      0.14927990	      0.88249717	      0.31046392	     29.01173767	      0.26476926	     -1.55232967	    -52.50782666	      9.06424742	      6.46696145	      5.05073946	     -2.72272448	      4.42854465	    -16.76108884	     18.63789389	     -0.51976260	     -2.21725259	      3.56591193	      3.30224644
      3.06000000	     -6.43004590	     -1.05168642	    -37.69454572	      0.15510052	      0.88222535	      0.31377819	     29.36791760	      0.22261999	     -1.61248803	    -50.35460376	      9.25480904	      6.43090899	      4.24706129	     -2.59274692	      4.64614285	    -16.24589205	     18.74881561	     -0.60037284	     -2.22418028	      3.49454332	      3.09549587
      3.07000000	     -6.31785706	     -1.02878976	    -37.38319004	      0.16090339	      0.88186316	      0.31709546	     29.67752342	      0.15281808	     -1.67189191	    -48.09449743	      9.38997916	      6.36825079	      3.46005988	     -2.45306275	      4.82912417	    -15.73868321	     18.85511282	     -0.68856938	     -2.22166929	      3.41408926	      2.90704183
      3.08000000	     -6.21090018	     -0.98569977	    -37.09195318	      0.16669055	      0.88140569	      0.32043840	     29.94381761	      0.06330880	     -1.73060448	    -45.73714410	      9.46294220	      6.27604261	      2.69191081	     -2.30568710	      4.97352783	    -15.24417424	     18.96114799	     -0.77425601	     -2.20678361	      3.32561740	      2.74010857
      3.09000000	     -6.09614265	     -0.93036276	    -36.82341661	      0.17247184	      0.88087301	      0.32381279	     30.14646358	     -0.04029907	     -1.77823591	    -43.28424383	      9.48250419	      6.13816410	      1.92871192	     -2.14683026	      5.08791775	    -14.77219105	     19.07986641	     -0.86264661	     -2.19765631	      3.22724781	      2.61125101
      3.10000000	     -6.00103175	     -0.84975373	    -36.55482598	      0.17826761	      0.88023173	      0.32721395	     30.32190419	     -0.16647887	     -1.85779969	    -40.75472459	      9.40532047	      6.00891579	      1.19910810	     -1.98536636	      5.17403151	    -14.30431241	     19.17677065	     -0.91542625	     -2.15579489	      3.12542908	      2.46187722
      3.11000000	     -5.89243148	     -0.76489889	    -36.29848342	      0.18407747	      0.87953858	      0.33064500	     30.41829718	     -0.30198049	     -1.93635978	    -38.13842753	      9.27579991	      5.86899291	      0.46511808	     -1.81480939	      5.26103826	    -13.85965096	     19.27527000	     -0.95498539	     -2.13172993	      3.01813478	      2.35391835
      3.12000000	     -5.79227918	     -0.64860323	    -36.04346117	      0.18988096	      0.87873845	      0.33412896	     30.48898112	     -0.45854241	     -2.02693742	    -35.47354503	      9.07143906	      5.77249908	     -0.23783861	     -1.63312723	      5.32716916	    -13.42587586	     19.37049941	     -0.96718028	     -2.08344486	      2.88865793	      2.22215443
      3.13000000	     -5.68367332	     -0.51594881	    -35.78844852	      0.19567033	      0.87787506	      0.33764991	     30.50378790	     -0.62811814	     -2.11966751	    -32.75530694	      8.82419832	      5.73182709	     -0.92526217	     -1.43900442	      5.41272633	    -13.02153078	     19.45944142	     -0.95410865	     -2.04177545	      2.73654001	      2.12020660
      3.14000000	     -5.58365539	     -0.35623701	    -35.52748930	      0.20147579	      0.87691761	      0.34121743	     30.49857489	     -0.81354089	     -2.22687239	    -30.02452401	      8.52071467	      5.77958648	     -1.58442136	     -1.23709534	      5.49765017	    -12.62751028	     19.54474234	     -0.91306772	     -1.97933002	      2.56998300	      1.99051091
      3.15000000	     -5.48810901	     -0.17013944	    -35.26411250	      0.20728417	      0.87587364	      0.34482400	     30.47728694	     -1.01295978	     -2.33717857	    -27.29995811	      8.19145515	      5.92003758	     -2.21202025	     -1.02382835	      5.60029050	    -12.26052944	     19.62488550	     -0.84175341	     -1.90399535	      2.38264868	      1.86628314
      3.16000000	     -5.39877823	      0.03574155	    -34.99450155	      0.21308938	      0.87475115	      0.34847965	     30.44920210	     -1.21988039	     -2.46093454	    -24.61483805	      7.85397704	      6.16034892	     -2.80622243	     -0.80845403	      5.72119171	    -11.92675587	     19.70450275	     -0.73774667	     -1.81787184	      2.17965743	      1.74695437
      3.17000000	     -5.32784882	      0.26737504	    -34.72058199	      0.21889889	      0.87353143	      0.35217540	     30.44199488	     -1.43251096	     -2.59373682	    -22.00170067	      7.52539737	      6.48288014	     -3.35070990	     -0.59091193	      5.85782741	    -11.63246778	     19.78692916	     -0.60591936	     -1.70593780	      1.96656762	      1.62306065
      3.18000000	     -5.27274111	      0.51535350	    -34.44309946	      0.22470855	      0.87223294	      0.35591372	     30.45867675	     -1.64428122	     -2.73969662	    -19.49329155	      7.21937650	      6.88586948	     -3.84786141	     -0.37723854	      6.01121696	    -11.38829028	     19.87888429	     -0.44938412	     -1.57792674	      1.74931501	      1.50160091
      3.19000000	     -5.23197497	      0.78017933	    -34.16596256	      0.23051595	      0.87085728	      0.35970106	     30.51361114	     -1.85503255	     -2.89407710	    -17.12886602	      6.94532276	      7.36801640	     -4.29801076	     -0.16417781	      6.17054412	    -11.19779465	     19.99779952	     -0.27564370	     -1.43509369	      1.52652226	      1.36845080
      3.20000000	     -5.22189557	      1.03731000	    -33.88544129	      0.23634019	      0.86942165	      0.36353834	     30.60348255	     -2.03935679	     -3.08194707	    -14.92160178	      6.71655821	      7.86755127	     -4.69680768	      0.01838769	      6.35239087	    -11.07344095	     20.12333493	     -0.11324806	     -1.27593875	      1.33222506	      1.24663678
      3.21000000	     -5.23730568	      1.27173634	    -33.60155554	      0.24219656	      0.86795176	      0.36742417	     30.72154993	     -2.19048169	     -3.31806941	    -12.89925943	      6.52544558	      8.36393585	     -5.05792392	      0.16274669	      6.55507300	    -11.01763221	     20.26070052	      0.02749481	     -1.11401976	      1.17905718	      1.13359320
